<svg fill="none" height="172" viewBox="0 0 145 172" width="145" xmlns="http://www.w3.org/2000/svg" xmlns:xlink="http://www.w3.org/1999/xlink">
  <linearGradient id="a" gradientUnits="userSpaceOnUse" x1="65.9079" x2="94.6056" y1="24.7833" y2="24.8703">
    <stop offset="0" stop-color="#ffb843" />
    <stop offset=".484345" stop-color="#fd6641" />
  </linearGradient>
  <mask id="b" height="97" maskUnits="userSpaceOnUse" width="132" x="7" y="64">
    <path d="m104.879 95.2873c.243-.147.501-.2677.769-.3601l33.315-11.4898-5.122-15.4859-14.784.0031-42.0896-3.641c-1.1766-.1018-2.338.3216-3.1731 1.1567l-5.1135 5.1134c-4.5507-4.5506-11.9287-4.5506-16.4794 0l-39.9721 39.9723c-6.24844 6.248-6.24844 16.379-.0001 22.627l22.8918 22.892c6.2483 6.248 16.379 6.248 22.6274 0l39.9722-39.972c4.5504-4.551 4.5504-11.929 0-16.4795z" fill="#d9d9d9" />
  </mask>
  <path d="m101.322 96.0246c1.562-1.5621 1.562-4.0947 0-5.6568l-23.3828-23.3829c-1.5621-1.5621-4.0948-1.5621-5.6568 0l-3.6023 3.6022c-4.5507-4.5506-11.9287-4.5506-16.4794 0l-39.9722 39.9719c-6.24837 6.249-6.24837 16.379 0 22.628l22.8917 22.891c6.2484 6.249 16.3791 6.249 22.6274 0l39.9722-39.972c4.5502-4.55 4.5502-11.928 0-16.4791z" fill="#c2d2ef" />
  <g mask="url(#b)">
    <path d="m58.2245 94.2325c-7.333-11.3922-22.3702-4.7468-28.9721 0l-27.82636 15.0585-2.9463 23.407 50.41476 36.011 59.7445-51.888-10.1481-16.369c.8184-.8727 3.8601-4.0089 4.9071-8.4611 1.31-5.5653 11.789-8.2338 21.937-7.4154 10.149.8184 10.312-15.5503-15.714-13.095-26.0254 2.4553-17.8412 27.6621-22.7517 37.8105-5.6985 11.778-19.4785-.818-28.6448-15.0585z" fill="#e3628e" stroke="#2f2f2f" stroke-linecap="round" stroke-width="3" />
  </g>
  <path d="m68.6801 70.5871 3.6023-3.6022c1.562-1.5621 4.0947-1.5621 5.6568 0l23.3828 23.3829c1.562 1.5621 1.562 4.0947 0 5.6568l-3.0136 3.0138c-.3251.325-.3251.852 0 1.1766 4.2256 4.226 4.2256 11.077 0 15.303l-40.5608 40.56c-6.2483 6.249-16.379 6.249-22.6274 0l-22.8917-22.891c-6.24837-6.249-6.24837-16.379 0-22.628l39.9722-39.9719c4.5507-4.5506 11.9287-4.5506 16.4794 0zm0 0 8.7355 8.7356" stroke="#2f2f2f" stroke-linecap="round" stroke-width="3" />
  <path d="m110.407 32.9216c-10.8674 3.0464 4.715 14.7991-1.341 23.8045-.563.8364.058 2.1436 1.024 1.853 16.015-4.8226 11.939-28.9154.317-25.6575z" fill="#e3628e" stroke="#2f2f2f" stroke-linecap="round" stroke-width="3" />
  <path d="m49.8481 123.857c0 9.382-6.0154 16.988-13.4358 16.988-7.4203 0-13.4357-7.606-13.4357-16.988s6.0154-16.987 13.4357-16.987c7.4204 0 13.4358 7.605 13.4358 16.987z" fill="#fe6641" />
  <path d="m36.4123 140.845c7.4204 0 13.4358-7.606 13.4358-16.988s-6.0154-16.987-13.4358-16.987m0 33.975c-7.4203 0-13.4357-7.606-13.4357-16.988s6.0154-16.987 13.4357-16.987m0 33.975h6.0893m-6.0893-33.975h6.0893" stroke="#2f2f2f" stroke-width="3" />
  <ellipse cx="36.4127" cy="123.86" fill="#feb743" rx="2.81599" ry="3.56042" stroke="#2f2f2f" stroke-width="3" />
  <path d="m36.4119 107.542.0001 12.754" stroke="#2f2f2f" stroke-linecap="round" stroke-width="3" />
  <path d="m49.3158 123.858h-10.0874" stroke="#2f2f2f" stroke-linecap="round" stroke-width="3" />
  <path d="m45.537 135.393-7.1329-9.018" stroke="#2f2f2f" stroke-linecap="round" stroke-width="3" />
  <path d="m36.4121 127.417.0001 12.754" stroke="#2f2f2f" stroke-linecap="round" stroke-width="3" />
  <path d="m38.4043 121.339 7.1329-9.019" stroke="#2f2f2f" stroke-linecap="round" stroke-width="3" />
  <path d="m69.4215 94.2666c0 5.5242 3.0694 10.0024 6.8556 10.0024 3.7863 0 6.8557-4.4782 6.8557-10.0024s-3.0694-10.0024-6.8557-10.0024c-3.7862 0-6.8556 4.4782-6.8556 10.0024z" fill="#fe6641" />
  <g stroke="#2f2f2f" stroke-width="3">
    <path d="m76.2771 104.269c-3.7862 0-6.8556-4.4782-6.8556-10.0024s3.0694-10.0024 6.8556-10.0024m0 20.0048c3.7863 0 6.8557-4.4782 6.8557-10.0024s-3.0694-10.0024-6.8557-10.0024m0 20.0048h-3.107m3.107-20.0048h-3.107" />
    <ellipse fill="#feb743" rx="1.65807" ry="2.09639" transform="matrix(-1 0 0 1 71.878 94.263)" />
    <path d="m71.8784 84.6588-.0001 7.5097" stroke-linecap="round" />
    <path d="m71.8784 96.3619-.0001 7.5101" stroke-linecap="round" />
    <ellipse cx="41.9885" cy="123.857" fill="#feb743" rx="13.4358" ry="16.9876" />
    <ellipse cx="41.9888" cy="123.86" fill="#feb743" rx="2.81599" ry="3.56042" />
    <path d="m41.9881 107.542v12.754" stroke-linecap="round" />
    <path d="m54.892 123.858h-10.0875" stroke-linecap="round" />
    <path d="m51.1132 135.393-7.1329-9.018" stroke-linecap="round" />
    <path d="m41.9883 127.417v12.754" stroke-linecap="round" />
    <path d="m39.172 123.858h-10.0874" stroke-linecap="round" />
    <path d="m39.9966 121.339-7.1329-9.019" stroke-linecap="round" />
    <path d="m32.8638 135.393 7.1329-9.018" stroke-linecap="round" />
    <path d="m43.9805 121.339 7.1329-9.019" stroke-linecap="round" />
    <ellipse fill="#feb743" rx="5.42846" ry="10.0024" transform="matrix(-1 0 0 1 72.5969 94.2666)" />
    <ellipse fill="#feb743" rx="1.13775" ry="2.09639" transform="matrix(-1 0 0 1 72.5966 94.263)" />
    <path d="m68.9101 101.057 2.8819-5.3099" stroke-linecap="round" />
    <path d="m73.4018 92.7838 2.8819-5.3102" stroke-linecap="round" />
    <path d="m76.2832 101.057-2.8819-5.3099" stroke-linecap="round" />
    <path d="m71.7924 92.7838-2.8819-5.3102" stroke-linecap="round" />
    <circle cx="70.2198" cy="123.86" fill="#fff" fill-opacity=".5" r="5.21278" />
    <circle cx="41.4789" cy="100.063" fill="#fff" fill-opacity=".5" r="3.04431" />
    <circle cx="49.8487" cy="148.735" fill="#fff" fill-opacity=".5" r="2.4703" />
    <path d="m61.4547 29.1032c0 14.8075 3.338 26.8114 7.4557 26.8114h8.1654v-53.62285h-8.1654c-4.1177 0-7.4557 12.00385-7.4557 26.81145z" fill="#f6ebd8" stroke-linecap="round" />
  </g>
  <ellipse cx="78.0255" cy="29.1032" fill="url(#a)" rx="7.45568" ry="26.8114" />
  <ellipse cx="78.0255" cy="29.1032" fill="#7b9dd9" rx="7.45568" ry="26.8114" />
  <ellipse cx="78.0255" cy="29.1032" fill="#e5dbca" rx="7.45568" ry="26.8114" />
  <ellipse cx="78.0255" cy="29.1032" rx="7.45568" ry="26.8114" stroke="#2f2f2f" stroke-linecap="round" stroke-width="3" />
  <path d="m65.0713 8.65112h7.8977" stroke="#2f2f2f" stroke-linecap="round" stroke-width="3" />
  <path d="m63.2195 16.1316h7.8977" stroke="#2f2f2f" stroke-linecap="round" stroke-width="3" />
  <path d="m62.3223 23.6042h7.8977" stroke="#2f2f2f" stroke-linecap="round" stroke-width="3" />
  <path d="m62.3223 31.4011h7.8977" stroke="#2f2f2f" stroke-linecap="round" stroke-width="3" />
  <path d="m62.3223 39.1941h7.8977" stroke="#2f2f2f" stroke-linecap="round" stroke-width="3" />
  <path d="m63.562 46.9871h7.8977" stroke="#2f2f2f" stroke-linecap="round" stroke-width="3" />
</svg>